<?xml version="1.0" standalone="no"?><!DOCTYPE svg PUBLIC "-//W3C//DTD SVG 1.1//EN" "http://www.w3.org/Graphics/SVG/1.1/DTD/svg11.dtd"><svg t="1633503780205" class="icon" viewBox="0 0 1024 1024" version="1.1" xmlns="http://www.w3.org/2000/svg" p-id="15327" xmlns:xlink="http://www.w3.org/1999/xlink" width="128" height="128"><defs><style type="text/css"></style></defs><path d="M158.533 615.545c2.246 0 4.522-0.22 6.803-0.66 19.341-3.74 31.989-22.442 28.251-41.783-3.848-19.944-5.805-40.504-5.805-61.1 0-102.56 48.358-194.038 123.466-252.84 6.409 17.473 17.388 35.916 35.998 42.886 3.024 1.138 5.851 2.281 8.58 3.38 14.576 5.867 29.65 11.945 54.982 11.945h0.21c4.12 0.813 13.146 9.241 19.572 17.89 3.32 17.517 7.244 41.863 7.244 51.08 0 14.466 2.647 30.486 4.981 44.627 1.033 6.233 2.044 12.294 2.74 17.844 1.73 13.849 10.756 24.612 23.543 28.083 3.105 0.847 6.072 1.253 8.94 1.253 19.88 0 34.891-19.491 56.223-47.202 4.058-5.283 9.485-12.33 11.94-15.069 1.376-0.917 3.111-1.915 5.003-3.064 14.57-8.812 38.96-23.555 42.676-49.525 1.248-8.695 1.01-21.94 0.523-42.85-0.267-11.29-0.679-28.889-0.186-37.944 6.03-5.037 18.725-13.588 30.834-20.698l60.791-17.1c61.895 41.041 109.524 103.124 131.15 177.452 5.502 18.923 25.285 29.778 44.202 24.286 18.912-5.502 29.784-25.296 24.28-44.208C837.082 235.879 682.168 119.7 508.754 119.7c-216.316 0-392.3 175.99-392.3 392.306 0 25.122 2.392 50.233 7.105 74.636 3.292 17.05 18.228 28.903 34.974 28.903zM604.58 205.832a29.913 29.913 0 0 0-5.902 2.549c-51.725 29.487-57.779 44.626-60.054 50.315-4.406 11-4.499 26.864-3.645 63.137 0.22 9.601 0.546 23.324 0.278 30.068-3.413 3.158-10.93 7.71-14.813 10.054-4.412 2.67-8.254 5.084-10.92 7.081-3.824 2.856-7.342 6.629-12.363 12.84-0.97-20.943-7.946-56.723-9.426-64.141a29.717 29.717 0 0 0-3.947-9.926c-5.2-8.323-33.138-49.844-72.291-49.844-14.419 0-21.187-2.722-33.47-7.674-2.205-0.888-4.47-1.8-6.838-2.716-2.548-3.94-5.736-13-7.709-21.741 43.645-22.248 93.02-34.808 145.273-34.808 33.07-0.001 65.315 5.165 95.827 14.806z" p-id="15328" fill="#1296db"></path><path d="M1018.91 395.18c-6.233-26.853-29.521-46.368-69.19-58.012-15.777-4.643-32.268 4.389-36.888 20.143-4.62 15.754 4.4 32.262 20.148 36.882 24.004 7.046 27.977 14.358 28.013 14.36 1.864 24.56-127.173 120.248-429.031 190.38-301.945 70.166-459.935 41.108-469.013 18.4-0.006-0.092 0.389-10.088 24.303-30.207 12.562-10.565 14.176-29.313 3.61-41.875-10.57-12.573-29.313-14.198-41.874-3.61-35.89 30.196-50.675 60.17-43.947 89.078 10.11 43.499 62.676 66.844 160.395 71.059a36.04 36.04 0 0 0 1.148 2.242c69.458 123.534 200.573 200.283 342.171 200.283 209.158 0 380.853-163.032 391.734-371.511 89.975-48.028 128.751-93.138 118.422-137.613zM494.333 832.64l27.982-23.163 49.548-5.723a29.738 29.738 0 0 0 22.841-15.58l10.698-20.142 10.135 20.815-6.838 28.329c-31.473 10.26-65.072 15.798-99.943 15.798-4.825 0.001-9.632-0.118-14.423-0.334z m182.287-46.83a29.713 29.713 0 0 0-2.967-13.365l-40.36-82.96a29.749 29.749 0 0 0-26.196-16.717c-11.452-0.07-21.529 5.897-26.776 15.778l-30.788 57.952-42.785 4.946a29.755 29.755 0 0 0-15.545 6.629l-65.023 53.82a29.596 29.596 0 0 0-6.944 8.306c-67.678-19.712-127.686-61.386-169.828-119.055 87.268-4.405 190.097-19.703 296.005-44.303 103.337-24.015 200.14-54.677 279.348-88.218-16.303 92.227-71.65 170.316-148.141 217.187z" p-id="15329" fill="#1296db"></path></svg>